{"title":"Black Eagle 2012  DVDRip XViD juggs","uid":8259998,"size":742057051,"categoryP":"video","categoryS":"movies","magnet":"?xt=urn:btih:6897bee6307405d019cffc3f4d08dfbaf61446b3&amp;dn=Black+Eagle+2012++DVDRip+XViD+juggs&amp;tr=udp%3A%2F%2Ftracker.openbittorrent.com%3A80&amp;tr=udp%3A%2F%2Fopen.demonii.com%3A1337&amp;tr=udp%3A%2F%2Ftracker.coppersurfer.tk%3A6969&amp;tr=udp%3A%2F%2Fexodus.desync.com%3A6969","seeders":3,"leechers":3,"uploader":"juggs99","files":3,"time":1363361205,"description":"Format : AVI\nFormat/Info : Audio Video Interleave\nFile size : 701 MiB\nDuration : 1h 55mn\nOverall bit rate : 852 Kbps\nWriting library : VirtualDub build 32842/release\n\nVideo\nID : 0\nFormat : MPEG-4 Visual\nFormat profile : Advanced Simple@L5\nFormat settings, BVOP : 4\nFormat settings, QPel : No\nFormat settings, GMC : No warppoints\nFormat settings, Matrix : Default (H.263)\nMuxing mode : Packed bitstream\nCodec ID : XVID\nCodec ID/Hint : XviD\nDuration : 1h 55mn\nBit rate : 714 Kbps\nWidth : 640 pixels\nHeight : 272 pixels\nDisplay aspect ratio : 2.35:1\nFrame rate : 23.976 fps\nColor space : YUV\nChroma subsampling : 4:2:0\nBit depth : 8 bits\nScan type : Progressive\nCompression mode : Lossy\nBits/(Pixel*Frame) : 0.171\nStream size : 588 MiB (84%)\nWriting library : XviD 64\n\nAudio\nID : 1\nFormat : MPEG Audio\nFormat version : Version 1\nFormat profile : Layer 3\nCodec ID : 55\nCodec ID/Hint : MP3\nDuration : 1h 55mn\nBit rate mode : Constant\nBit rate : 128 Kbps\nChannel(s) : 2 channels\nSampling rate : 44.1 KHz\nCompression mode : Lossy\nStream size : 105 MiB (15%)\nAlignment : Split accross interleaves\nInterleave, duration : 42 ms (1.00 video frame)\nInterleave, preload duration : 500 ms\nWriting library : LAME3.99r\nEncoding settings : -m s -V 4 -q 3 -lowpass 17 -b 128\n\nPlot\nAfter he performs a dangerous dare-devil stunt at an air show, South Korean Air Force pilot Tae-hun is kicked out of the elite Black Eagles flying team and transferred to a combat unit\n\n &lt;a href=&quot;\nhttp://www.shotpix.com/images/42900754657353015882.png&quot; rel=&quot;nofollow&quot; target=&quot;_NEW&quot;&gt;\nhttp://www.shotpix.com/images/42900754657353015882.png&lt;/a&gt; &lt;a href=&quot;\nhttp://www.shotpix.com/images/89949099130589006868.png&quot; rel=&quot;nofollow&quot; target=&quot;_NEW&quot;&gt;\nhttp://www.shotpix.com/images/89949099130589006868.png&lt;/a&gt; &lt;a href=&quot;\nhttp://www.shotpix.com/images/22178520418707500027.png&quot; rel=&quot;nofollow&quot; target=&quot;_NEW&quot;&gt;\nhttp://www.shotpix.com/images/22178520418707500027.png&lt;/a&gt;","torrent":{"xt":"urn:btih:6897bee6307405d019cffc3f4d08dfbaf61446b3","amp;dn":"Black+Eagle+2012++DVDRip+XViD+juggs","amp;tr":["udp%3A%2F%2Ftracker.openbittorrent.com%3A80","udp%3A%2F%2Fopen.demonii.com%3A1337","udp%3A%2F%2Ftracker.coppersurfer.tk%3A6969","udp%3A%2F%2Fexodus.desync.com%3A6969"],"infoHash":"6897bee6307405d019cffc3f4d08dfbaf61446b3","infoHashBuffer":{"type":"Buffer","data":[104,151,190,230,48,116,5,208,25,207,252,63,77,8,223,186,246,20,70,179]},"announce":[],"urlList":[]}}